<?xml version="1.0" encoding="UTF-8"?>
<svg id="Layer_1" xmlns="http://www.w3.org/2000/svg" version="1.1" xmlns:xlink="http://www.w3.org/1999/xlink" viewBox="0 0 185.71 163.52">
  <!-- Generator: Adobe Illustrator 30.6.0, SVG Export Plug-In . SVG Version: 2.1.4 Build 109)  -->
  <defs>
    <style>
      .st0 {
        fill: #68a8de;
      }

      .st1 {
        fill: url(#linear-gradient1);
      }

      .st2 {
        fill: #cb4f24;
      }

      .st3 {
        fill: #3f3e3e;
      }

      .st4 {
        fill: url(#linear-gradient);
      }
    </style>
    <linearGradient id="linear-gradient" x1="0" y1="36.01" x2="43.4" y2="36.01" gradientUnits="userSpaceOnUse">
      <stop offset="0" stop-color="#6d904c"/>
      <stop offset=".22" stop-color="#7a9b50"/>
      <stop offset="1" stop-color="#a6c461"/>
    </linearGradient>
    <linearGradient id="linear-gradient1" x1="12.19" y1="55.83" x2="50.47" y2="55.83" xlink:href="#linear-gradient"/>
  </defs>
  <g>
    <path class="st0" d="M46.46,104.51s7.98-4.48-2.19-13.38c-10.18-8.9-19.37-17.51-12.87-19.91,0,0-11.05,1.54-4.69,10.22,6.36,8.69,26.11,15.45,19.75,23.07Z"/>
    <path class="st0" d="M46.17,104.63s4.15-5.24-7.21-10.68c-11.36-5.44-21.85-10.84-17.96-14.07,0,0-7.68,3.38.72,9.38,8.4,5.99,26.07,7.84,24.44,15.38Z"/>
    <path class="st0" d="M45.78,104.5s.98-4.46-8.43-6.66c-9.4-2.2-18.22-4.5-16.73-7.46,0,0-3.96,3.66,3.66,6.72,7.62,3.06,20.01,1.65,21.49,7.4Z"/>
  </g>
  <path class="st2" d="M91.51,16.32c-.6,8.39-7.89,14.7-16.28,14.1-8.39-.6-14.7-7.89-14.1-16.28C61.73,5.75,69.02-.56,77.41.04c8.39.6,14.7,7.89,14.1,16.28Z"/>
  <path class="st2" d="M145.4,20.24c-33.89-2.43-64.49,15.81-79.46,44.01C62.6,49.67,50.22,14.79,6.96,3.89c0,0,42.31,14.92,51.88,78.75-.94,6.17-1.22,9.6-1.41,14.63-.95,24.68,9.93,49.5,24.73,66.24-18.86-29.1-10.38-68-10.38-68,0,0,0,.01.01.02,6.35-42.11,40.72-72.44,84.1-69.33,10.67.76,20.73,3.51,29.83,7.85-11.62-7.78-25.36-12.74-40.31-13.82Z"/>
  <path class="st3" d="M48.81,151.6s-9.85-7.08-8.55-16.22c0,0,.69-2.85,2.27-6.84,1.58-3.99,2.16-6.31,1.57-8.31-.59-2-.2-4.47,2.79-1.2,0,0,2.81,2.51,1.3,7.78-.89,3.3-3.91,8.94-.19,6.93,0,0,3.36-2.91,3-7.96-.36-5.05-2.47-9.63-4.43-13.62-1.96-3.99-1.78-5.39-1.94-5.98-.16-.59.36-3.41,2.52.12,0,0,2.19,4.48,5.26,8.42,3.07,3.94,7.94,11.29,4.16,22.03-2.89,7.43-3.66,10.98-1.89,14.22,0,0,2,4.33,9.24,3.53,0,0-5.47,3.26-15.12-2.9Z"/>
  <g>
    <path class="st4" d="M39.19,63.7c.74-1.34,1.33-2.78,1.82-4.23.48-1.46.85-2.95,1.08-4.47.46-3.02.32-6.12-.61-8.97-.47-1.42-1.1-2.79-1.92-4.03-.83-1.24-1.78-2.4-2.88-3.42-.25-.27-.56-.5-.84-.74-.29-.24-.56-.5-.87-.72-.61-.43-1.19-.91-1.85-1.29l-.95-.6c-.32-.19-.66-.36-.99-.55l-2.05-1.12c-1.37-.75-2.73-1.46-4.07-2.36l-2.02-1.29-1.92-1.41c-1.31-.91-2.49-1.97-3.71-2.99-.61-.51-1.16-1.08-1.75-1.62l-.87-.82c-.29-.27-.55-.58-.83-.86-.54-.58-1.1-1.16-1.63-1.75l-1.54-1.84c-.99-1.26-1.95-2.53-2.83-3.88-.9-1.33-1.7-2.72-2.47-4.15-.36-.73-.74-1.44-1.06-2.19-.17-.37-.33-.75-.48-1.13-.08-.19-.16-.38-.23-.58-.07-.2-.14-.39-.22-.63l3.2.02c-.4,1.48-.75,3.08-1.05,4.65-.3,1.58-.55,3.16-.76,4.76-.42,3.18-.64,6.39-.66,9.58,0,1.59.02,3.19.11,4.77.09,1.58.21,3.16.42,4.72.2,1.56.44,3.12.77,4.65.32,1.53.7,3.05,1.18,4.53.48,1.48,1.01,2.94,1.65,4.35.63,1.41,1.37,2.78,2.21,4.07.82,1.31,1.73,2.56,2.74,3.74,1.02,1.17,2.13,2.26,3.3,3.3,1.17,1.04,2.46,1.95,3.78,2.82,1.32.88,2.73,1.63,4.16,2.34,1.45.68,2.93,1.34,4.46,1.87,1.52.57,3.08,1.04,4.66,1.5l-.07.42c-.82-.09-1.65-.16-2.47-.27-.82-.13-1.65-.24-2.46-.42-.41-.08-.82-.16-1.23-.25l-1.21-.31c-.82-.19-1.61-.47-2.42-.71-1.58-.56-3.17-1.18-4.69-1.95-1.51-.78-3-1.64-4.39-2.65-1.4-1-2.72-2.12-3.95-3.34-1.22-1.23-2.35-2.55-3.37-3.96-1.01-1.41-1.92-2.9-2.7-4.44-.79-1.54-1.49-3.13-2.06-4.75-1.16-3.25-1.88-6.63-2.28-10.01-.19-1.69-.32-3.39-.36-5.08-.04-1.69-.02-3.38.07-5.07.18-3.37.59-6.7,1.14-10.01.28-1.65.61-3.29.99-4.92.38-1.64.79-3.23,1.3-4.9v-.03c.28-.88,1.21-1.37,2.09-1.1.56.17.97.63,1.11,1.15.03.12.1.31.15.47.05.17.12.34.18.51.12.34.25.68.4,1.03.27.69.59,1.36.9,2.04.66,1.34,1.37,2.67,2.17,3.94.78,1.29,1.65,2.52,2.54,3.74l1.4,1.79c.49.58,1,1.14,1.49,1.71.25.28.49.58.76.85l.8.81c.54.53,1.05,1.1,1.62,1.61,1.14,1,2.23,2.07,3.46,2.98l1.8,1.41,1.87,1.29c1.21.89,2.59,1.65,3.91,2.46l2,1.2c.34.21.69.4,1.03.62l.99.68c.67.43,1.28.97,1.91,1.47.32.25.6.54.9.81.29.28.6.53.87.84,1.13,1.15,2.11,2.45,2.96,3.83.84,1.39,1.46,2.9,1.89,4.45.87,3.11.87,6.4.25,9.5-.31,1.55-.77,3.07-1.33,4.54-.57,1.47-1.24,2.89-2.07,4.23l-.36-.22Z"/>
    <path class="st1" d="M12.61,32.63s.22.92.78,2.5c.56,1.57,1.45,3.78,2.73,6.32,1.27,2.55,2.95,5.41,4.96,8.33.52.72,1.02,1.46,1.58,2.18.27.36.55.73.82,1.1.29.36.57.72.86,1.09,1.15,1.46,2.39,2.87,3.65,4.26.66.67,1.29,1.36,1.97,2.01.68.64,1.35,1.29,2.04,1.9,1.39,1.21,2.76,2.41,4.08,3.56.67.57,1.31,1.14,1.93,1.72.64.56,1.26,1.1,1.85,1.65.59.55,1.2,1.05,1.77,1.56.57.51,1.12,1.01,1.66,1.46,1.08.92,2.04,1.81,2.93,2.56.88.78,1.64,1.46,2.27,2.02.63.56,1.13,1.02,1.46,1.34.33.32.51.5.51.5l-.21.37s-.24-.07-.67-.22c-.44-.14-1.07-.37-1.88-.68-.81-.29-1.76-.72-2.84-1.23-1.09-.49-2.27-1.14-3.55-1.87-.65-.35-1.29-.77-1.96-1.19-.66-.44-1.37-.86-2.04-1.37-.69-.49-1.39-1-2.09-1.54-.69-.56-1.38-1.14-2.08-1.75-.68-.62-1.35-1.28-2.02-1.96-.67-.67-1.3-1.41-1.95-2.12-.64-.72-1.26-1.48-1.9-2.22-.62-.76-1.24-1.52-1.86-2.28-.59-.78-1.21-1.55-1.78-2.33-.57-.8-1.15-1.57-1.68-2.38-.27-.4-.54-.8-.81-1.19-.25-.4-.51-.81-.76-1.21-.51-.8-.96-1.61-1.42-2.4-.89-1.6-1.72-3.16-2.42-4.69-.71-1.52-1.31-2.98-1.83-4.35-.53-1.36-.92-2.64-1.27-3.77-.34-1.13-.59-2.14-.77-2.96-.37-1.66-.47-2.63-.47-2.63l.42-.07Z"/>
  </g>
</svg>