<?xml version="1.0" encoding="UTF-8"?>
<svg id="Layer_1" xmlns="http://www.w3.org/2000/svg" version="1.1" xmlns:xlink="http://www.w3.org/1999/xlink" viewBox="0 0 297.97 160.72">
  <!-- Generator: Adobe Illustrator 30.6.0, SVG Export Plug-In . SVG Version: 2.1.4 Build 109)  -->
  <defs>
    <style>
      .st0 {
        fill: #68a8de;
      }

      .st1 {
        fill: url(#linear-gradient1);
      }

      .st2 {
        fill: #cb4f24;
      }

      .st3 {
        fill: #3f3e3e;
      }

      .st4 {
        fill: url(#linear-gradient);
      }
    </style>
    <linearGradient id="linear-gradient" x1="0" y1="34.76" x2="41.88" y2="34.76" gradientUnits="userSpaceOnUse">
      <stop offset="0" stop-color="#6d904c"/>
      <stop offset=".22" stop-color="#7a9b50"/>
      <stop offset="1" stop-color="#a6c461"/>
    </linearGradient>
    <linearGradient id="linear-gradient1" x1="11.76" y1="53.89" x2="48.71" y2="53.89" xlink:href="#linear-gradient"/>
  </defs>
  <g>
    <path class="st0" d="M44.85,100.87s7.7-4.32-2.12-12.91c-9.82-8.59-18.69-16.9-12.42-19.22,0,0-10.67,1.48-4.52,9.86,6.14,8.38,25.2,14.91,19.06,22.26Z"/>
    <path class="st0" d="M44.57,100.98s4-5.06-6.96-10.31c-10.96-5.25-21.09-10.46-17.33-13.58,0,0-7.41,3.26.7,9.05,8.11,5.79,25.16,7.57,23.59,14.84Z"/>
    <path class="st0" d="M44.18,100.86s.94-4.31-8.13-6.43c-9.08-2.12-17.59-4.34-16.14-7.2,0,0-3.82,3.53,3.54,6.48,7.36,2.95,19.31,1.6,20.74,7.14Z"/>
  </g>
  <path class="st2" d="M88.32,15.75c-.58,8.1-7.61,14.19-15.71,13.61-8.1-.58-14.19-7.61-13.61-15.71.58-8.1,7.61-14.19,15.71-13.61,8.1.58,14.19,7.61,13.61,15.71Z"/>
  <path class="st2" d="M140.34,19.54c-32.71-2.34-62.25,15.26-76.7,42.47C60.42,47.94,48.47,14.28,6.71,3.76c0,0,40.84,14.4,50.07,76.01-.91,5.95-1.18,9.26-1.36,14.12-.91,23.82,9.58,47.77,23.87,63.93-18.2-28.08-10.02-65.63-10.02-65.63,0,0,0,.01.01.02,6.12-40.64,39.3-69.91,81.17-66.91,10.3.74,20,3.39,28.79,7.58-11.21-7.51-24.47-12.3-38.9-13.33Z"/>
  <path class="st3" d="M47.11,146.32s-9.5-6.84-8.25-15.66c0,0,.66-2.75,2.19-6.6,1.53-3.85,2.09-6.09,1.52-8.02-.57-1.93-.19-4.31,2.69-1.16,0,0,2.71,2.42,1.25,7.51-.86,3.19-3.78,8.63-.18,6.69,0,0,3.24-2.81,2.89-7.69-.35-4.87-2.39-9.29-4.27-13.14-1.89-3.85-1.72-5.21-1.87-5.77-.15-.56.35-3.29,2.43.12,0,0,2.11,4.32,5.08,8.13,2.97,3.8,7.67,10.9,4.02,21.26-2.79,7.17-3.54,10.6-1.82,13.72,0,0,1.93,4.18,8.92,3.41,0,0-5.28,3.15-14.59-2.8Z"/>
  <g>
    <path class="st3" d="M109.77,126.45h-28.5V62.03h28.5c6.75,0,12.12,3.41,16.13,10.23,3.63,6.15,5.44,13.65,5.44,22.51s-1.78,15.92-5.35,21.83c-3.98,6.57-9.39,9.86-16.23,9.86ZM107.62,112.46c3.06,0,5.51-1.97,7.35-5.9,1.69-3.58,2.53-7.9,2.53-12.96s-.81-9.04-2.43-12.38c-1.81-3.72-4.3-5.58-7.45-5.58h-13.46v36.83h13.46Z"/>
    <path class="st3" d="M184.81,103.36c0,7.45-2.61,13.39-7.83,17.82-4.71,4.01-10.47,6.01-17.28,6.01s-12.19-1.97-16.71-5.9c-5.06-4.39-7.59-10.37-7.59-17.92v-41.33h12.65v39c0,3.37,1.3,6.08,3.91,8.12,2.39,1.86,5.27,2.79,8.64,2.79s5.98-.9,8.21-2.69c2.48-2,3.72-4.74,3.72-8.22v-39h12.27v41.33Z"/>
    <path class="st3" d="M240.04,126.46l-36.71-16.05v16.04h-12.7v-21.37c0-5.13,1.15-9.29,3.44-12.45,2.67-3.69,6.6-5.54,11.79-5.54h15.8c1.46,0,2.59-.55,3.39-1.65.79-1.1,1.19-2.41,1.19-3.91,0-1.61-.38-2.96-1.15-4.04-.86-1.22-2-1.84-3.44-1.84h-31.03v-13.61h33.18c4.96,0,8.89,2.02,11.79,6.06,2.61,3.65,3.91,8.13,3.91,13.43s-1.3,9.73-3.91,13.38c-2.9,4.08-6.83,6.11-11.79,6.11h-8.02l24.25,10.24v15.2Z"/>
    <path class="st3" d="M295.08,103.36c0,7.45-2.61,13.39-7.83,17.82-4.71,4.01-10.47,6.01-17.28,6.01s-12.19-1.97-16.71-5.9c-5.06-4.39-7.59-10.37-7.59-17.92v-41.33h12.65v39c0,3.37,1.3,6.08,3.91,8.12,2.39,1.86,5.27,2.79,8.64,2.79s5.98-.9,8.21-2.69c2.48-2,3.72-4.74,3.72-8.22v-39h12.27v41.33Z"/>
  </g>
  <g>
    <path class="st2" d="M91.1,148.15c0,1.02-.14,1.97-.42,2.86-.28.89-.66,1.67-1.14,2.33s-1.04,1.19-1.69,1.57c-.64.38-1.33.58-2.06.58s-1.42-.19-2.06-.58c-.64-.38-1.2-.91-1.68-1.57s-.85-1.44-1.13-2.33c-.28-.89-.42-1.85-.42-2.86v-11.03h2.64v11.03c0,.5.07.98.21,1.42.14.44.33.83.57,1.17.24.33.52.6.85.79.32.19.67.29,1.03.29s.71-.1,1.03-.29c.32-.19.6-.46.85-.79.24-.33.43-.72.57-1.17.14-.44.21-.92.21-1.42v-11.03h2.65v11.03Z"/>
    <path class="st2" d="M95.95,154.18c0,.31-.04.6-.12.86-.08.27-.19.5-.33.7-.14.2-.31.35-.5.47-.19.12-.4.17-.62.17s-.42-.06-.61-.17c-.19-.12-.36-.27-.51-.47-.14-.2-.26-.43-.34-.7-.08-.27-.12-.56-.12-.86s.04-.58.12-.85c.08-.26.2-.5.34-.69s.31-.35.51-.47c.19-.12.4-.17.61-.17s.43.06.62.17.36.27.5.47.25.43.33.69c.08.27.12.55.12.85Z"/>
    <path class="st2" d="M107.37,155.49h-9.27v-18.38h2.65v14.7h6.62v3.68Z"/>
    <path class="st2" d="M111.58,154.18c0,.31-.04.6-.12.86-.08.27-.19.5-.33.7-.14.2-.31.35-.5.47-.19.12-.4.17-.62.17s-.42-.06-.61-.17c-.19-.12-.36-.27-.51-.47-.14-.2-.26-.43-.34-.7-.08-.27-.12-.56-.12-.86s.04-.58.12-.85c.08-.26.2-.5.34-.69s.31-.35.51-.47c.19-.12.4-.17.61-.17s.43.06.62.17.36.27.5.47.25.43.33.69c.08.27.12.55.12.85Z"/>
    <path class="st2" d="M123.01,137.11l-4.35,18.38h-2.65l-4.33-18.38h3.01l2.64,12.26,2.65-12.26h3.03Z"/>
    <path class="st2" d="M126.27,154.18c0,.31-.04.6-.12.86-.08.27-.19.5-.33.7-.14.2-.31.35-.5.47-.19.12-.4.17-.62.17s-.42-.06-.61-.17c-.19-.12-.36-.27-.51-.47-.14-.2-.26-.43-.34-.7-.08-.27-.12-.56-.12-.86s.04-.58.12-.85c.08-.26.2-.5.34-.69s.31-.35.51-.47c.19-.12.4-.17.61-.17s.43.06.62.17.36.27.5.47.25.43.33.69c.08.27.12.55.12.85Z"/>
    <path class="st2" d="M139.26,155.49h-2.64v-14.7h-3.98v-3.68h10.59v3.68h-3.97v14.7Z"/>
    <path class="st2" d="M146.75,152.13c.1.04.2.07.3.08.1.01.2.02.3.02.25,0,.48-.05.71-.14.23-.09.44-.23.64-.4.2-.17.38-.39.54-.64.16-.25.28-.53.38-.84l1.85,2.58c-.23.46-.5.88-.81,1.24s-.63.68-.99.94-.73.45-1.12.58c-.39.13-.79.2-1.21.2-.7,0-1.35-.18-1.96-.54-.61-.36-1.15-.86-1.61-1.5-.46-.64-.82-1.4-1.08-2.29-.27-.88-.4-1.86-.4-2.92s.13-2.08.4-2.97c.26-.9.63-1.66,1.08-2.29.46-.63.99-1.12,1.61-1.47s1.27-.53,1.96-.53c.41,0,.82.07,1.21.21s.77.33,1.12.59c.35.26.69.57.99.94.31.37.58.79.81,1.25l-4.73,7.91ZM148.05,144.92c-.12-.06-.23-.1-.35-.12-.11-.02-.23-.03-.36-.03-.34,0-.67.09-.97.26-.3.17-.57.42-.79.75-.22.33-.4.72-.53,1.17-.13.46-.19.97-.19,1.54,0,.13,0,.27.01.44,0,.16.02.33.05.49.02.17.05.33.08.48.03.15.07.29.12.41l2.94-5.41Z"/>
    <path class="st2" d="M155.29,155.49h-2.54v-19.18h2.54v12.1l3.76-6.61h2.9l-3.28,5.72,3.28,7.98h-2.9l-2-4.99-1.75,3.23v1.76Z"/>
    <path class="st2" d="M165.47,155.49h-2.52v-13.72h.61l.83,1.33c.41-.51.87-.91,1.38-1.19.51-.28,1.05-.42,1.61-.42.6,0,1.17.16,1.71.48.54.32,1,.76,1.4,1.32.4.56.72,1.21.95,1.96.23.75.35,1.54.35,2.39v7.84h-2.52v-7.84c0-.36-.05-.7-.15-1.02s-.23-.6-.41-.84c-.17-.24-.37-.43-.6-.56s-.47-.21-.73-.21-.51.07-.75.21c-.23.14-.44.33-.61.56-.17.24-.31.52-.41.84s-.15.66-.15,1.02v7.84Z"/>
    <path class="st2" d="M183.14,148.5c0,1.03-.13,1.98-.4,2.86-.26.88-.62,1.65-1.08,2.29-.46.65-.99,1.15-1.6,1.53-.61.37-1.27.56-1.97.56s-1.35-.19-1.96-.56c-.61-.37-1.15-.88-1.61-1.53-.46-.64-.82-1.41-1.09-2.29-.26-.88-.4-1.84-.4-2.86s.13-2.01.4-2.9.63-1.66,1.09-2.3c.46-.64.99-1.15,1.61-1.52.61-.37,1.27-.55,1.96-.55s1.36.17,1.97.52c.61.35,1.15.84,1.6,1.47.46.64.82,1.4,1.08,2.29.26.89.4,1.89.4,2.98ZM180.6,148.5c0-.56-.07-1.07-.2-1.53s-.31-.85-.54-1.18c-.23-.33-.49-.58-.8-.76-.31-.17-.63-.26-.97-.26s-.67.09-.97.26-.57.43-.79.76-.4.72-.53,1.18c-.13.46-.19.97-.19,1.53,0,.53.06,1.02.19,1.47.13.45.31.85.53,1.18.22.33.49.6.79.79s.63.29.97.29.67-.09.97-.27c.3-.18.57-.43.8-.76.23-.32.41-.72.54-1.18s.2-.97.2-1.53Z"/>
    <path class="st2" d="M187.07,155.49h-2.54v-19.18h2.54v19.18Z"/>
    <path class="st2" d="M198.56,148.5c0,1.03-.13,1.98-.4,2.86-.26.88-.62,1.65-1.08,2.29-.46.65-.99,1.15-1.6,1.53-.61.37-1.27.56-1.97.56s-1.35-.19-1.96-.56c-.61-.37-1.15-.88-1.61-1.53-.46-.64-.82-1.41-1.09-2.29-.26-.88-.4-1.84-.4-2.86s.13-2.01.4-2.9.63-1.66,1.09-2.3c.46-.64.99-1.15,1.61-1.52.61-.37,1.27-.55,1.96-.55s1.36.17,1.97.52c.61.35,1.15.84,1.6,1.47.46.64.82,1.4,1.08,2.29.26.89.4,1.89.4,2.98ZM196.02,148.5c0-.56-.07-1.07-.2-1.53s-.31-.85-.54-1.18c-.23-.33-.49-.58-.8-.76-.31-.17-.63-.26-.97-.26s-.67.09-.97.26-.57.43-.79.76-.4.72-.53,1.18c-.13.46-.19.97-.19,1.53,0,.53.06,1.02.19,1.47.13.45.31.85.53,1.18.22.33.49.6.79.79s.63.29.97.29.67-.09.97-.27c.3-.18.57-.43.8-.76.23-.32.41-.72.54-1.18s.2-.97.2-1.53Z"/>
    <path class="st2" d="M196.19,160.72v-3.52l1.39.03c.34,0,.65-.1.94-.29.29-.19.54-.45.75-.77s.38-.69.5-1.11c.12-.42.19-.86.19-1.32v-11.97h2.58v11.97h-.02c0,.64-.07,1.26-.19,1.86s-.29,1.16-.51,1.67c-.22.52-.49.99-.79,1.41-.31.42-.65.79-1.02,1.09-.37.3-.77.54-1.2.71-.43.17-.87.25-1.33.25h-1.28ZM202.96,138.03c0,.33-.04.63-.13.91-.09.28-.21.53-.36.74-.15.21-.33.38-.54.5-.21.12-.42.19-.65.19-.24,0-.46-.06-.67-.19-.21-.12-.39-.29-.54-.5-.15-.21-.28-.46-.37-.74s-.13-.58-.13-.91.04-.62.13-.9c.09-.29.21-.53.37-.74.15-.21.33-.38.54-.5.21-.12.43-.19.67-.19.23,0,.44.06.65.19.21.12.38.29.54.5.15.21.27.46.36.74.09.29.13.59.13.9Z"/>
    <path class="st2" d="M207.42,138.03c0,.33-.04.63-.13.91-.09.28-.21.53-.36.74-.15.21-.33.38-.54.5-.21.12-.43.19-.66.19s-.45-.06-.66-.19c-.21-.12-.38-.29-.54-.5-.15-.21-.27-.46-.36-.74-.09-.28-.13-.58-.13-.91s.04-.62.13-.9c.09-.29.21-.53.36-.74.15-.21.33-.38.54-.5.21-.12.43-.19.66-.19s.45.06.66.19c.21.12.39.29.54.5.15.21.28.46.36.74.09.29.13.59.13.9ZM206.99,155.49h-2.54v-13.72h2.54v13.72Z"/>
    <path class="st2" d="M213.7,142.62c0-.76.11-1.47.31-2.14.21-.67.49-1.25.85-1.75.36-.5.78-.9,1.26-1.19s.99-.44,1.54-.44h6.08v3.68h-6.08c-.18,0-.36.05-.52.14s-.3.22-.42.39c-.12.17-.21.36-.28.58-.07.22-.1.46-.1.72s.03.5.1.72c.07.23.16.42.28.59.12.17.26.3.42.39.16.09.33.14.52.14h2.65c.55,0,1.06.14,1.55.43.48.29.91.68,1.27,1.18.36.5.64,1.08.85,1.75.21.67.31,1.39.31,2.15s-.1,1.47-.31,2.14c-.21.67-.49,1.25-.85,1.75s-.78.9-1.27,1.19-1,.44-1.55.44h-5.88v-3.68h5.88c.18,0,.36-.05.52-.14.16-.09.3-.22.42-.39.12-.17.21-.36.28-.58.07-.22.1-.46.1-.72s-.03-.5-.1-.72c-.07-.22-.16-.42-.28-.58-.12-.17-.26-.3-.42-.39-.16-.09-.33-.14-.52-.14h-2.65c-.55,0-1.06-.15-1.54-.44-.48-.29-.9-.69-1.26-1.19s-.65-1.08-.85-1.76c-.21-.67-.31-1.39-.31-2.15Z"/>
    <path class="st2" d="M228.73,138.03c0,.33-.04.63-.13.91-.09.28-.21.53-.36.74-.15.21-.33.38-.54.5-.21.12-.43.19-.66.19s-.45-.06-.66-.19c-.21-.12-.38-.29-.54-.5-.15-.21-.27-.46-.36-.74-.09-.28-.13-.58-.13-.91s.04-.62.13-.9c.09-.29.21-.53.36-.74.15-.21.33-.38.54-.5.21-.12.43-.19.66-.19s.45.06.66.19c.21.12.39.29.54.5.15.21.28.46.36.74.09.29.13.59.13.9ZM228.3,155.49h-2.54v-13.72h2.54v13.72Z"/>
    <path class="st2" d="M235.65,155.49h-5.76v-3.49h5.76c.17,0,.32-.09.44-.26.12-.17.18-.38.18-.62s-.06-.41-.18-.49c-.12-.08-.27-.12-.44-.12h-2.62c-.44,0-.85-.12-1.23-.35-.38-.23-.71-.54-1-.94s-.51-.86-.67-1.39c-.16-.53-.25-1.1-.25-1.7s.08-1.17.25-1.7c.16-.53.39-.99.67-1.38.28-.39.62-.7,1-.93s.79-.34,1.23-.34h5.11v3.49h-5.11c-.17,0-.32.08-.44.26s-.18.38-.18.62.06.46.18.63c.12.18.27.26.44.26h2.62c.43,0,.84.1,1.22.3.38.2.71.48,1,.84.28.36.51.79.67,1.29s.25,1.05.25,1.65-.08,1.17-.25,1.7-.39.99-.67,1.38c-.28.4-.62.71-1,.94-.38.23-.79.34-1.22.34Z"/>
    <path class="st2" d="M245.09,155.49c-.61,0-1.18-.16-1.72-.48-.54-.32-1.01-.76-1.41-1.32s-.72-1.21-.95-1.95c-.23-.74-.35-1.54-.35-2.38v-4.07h-1.23v-3.49h1.23v-5.48h2.51v5.48h3.82v3.49h-3.82v4.07c0,.37.05.71.15,1.03.1.32.23.6.41.84.17.24.38.43.61.57.23.14.48.21.75.21h1.91v3.49h-1.91Z"/>
    <path class="st2" d="M252.35,152.13c.1.04.2.07.3.08s.2.02.3.02c.25,0,.48-.05.71-.14.23-.09.44-.23.64-.4.2-.17.38-.39.54-.64s.29-.53.38-.84l1.85,2.58c-.23.46-.5.88-.81,1.24-.31.37-.63.68-.99.94-.35.26-.73.45-1.12.58-.39.13-.79.2-1.21.2-.7,0-1.35-.18-1.96-.54-.61-.36-1.15-.86-1.61-1.5-.46-.64-.82-1.4-1.09-2.29-.26-.88-.4-1.86-.4-2.92s.13-2.08.4-2.97.63-1.66,1.09-2.29c.46-.63.99-1.12,1.61-1.47.61-.35,1.27-.53,1.96-.53.41,0,.82.07,1.21.21.39.14.77.33,1.12.59.35.26.68.57.99.94.31.37.58.79.81,1.25l-4.73,7.91ZM253.65,144.92c-.12-.06-.23-.1-.35-.12-.11-.02-.23-.03-.36-.03-.35,0-.67.09-.97.26s-.57.42-.79.75c-.22.33-.4.72-.53,1.17-.13.46-.19.97-.19,1.54,0,.13,0,.27.01.44,0,.16.02.33.05.49.02.17.05.33.08.48.03.15.07.29.12.41l2.94-5.41Z"/>
    <path class="st2" d="M270.93,155.49h-2.51v-8.71c0-.24-.03-.47-.1-.68-.07-.21-.16-.4-.27-.56-.12-.16-.25-.29-.41-.38-.15-.09-.32-.13-.49-.13s-.33.04-.49.13c-.15.09-.28.22-.4.38-.11.16-.2.35-.27.56-.06.21-.1.44-.1.68v8.71h-2.52v-8.71c0-.24-.03-.47-.1-.68-.06-.21-.16-.4-.27-.56-.12-.16-.25-.29-.41-.38-.15-.09-.32-.13-.49-.13s-.33.04-.49.13c-.15.09-.28.22-.4.38-.11.16-.2.35-.27.56-.06.21-.1.44-.1.68v8.71h-2.52v-13.72h.61l.68,1.05c.35-.41.74-.73,1.16-.96.42-.23.86-.34,1.32-.34s.91.12,1.35.36c.44.24.83.65,1.16,1.24.15-.29.33-.54.53-.74s.4-.37.62-.5.45-.22.68-.28c.23-.06.46-.08.69-.08.52,0,1.01.14,1.47.41.46.27.86.65,1.2,1.12.34.47.61,1.03.81,1.67s.3,1.32.3,2.05v8.71Z"/>
    <path class="st2" d="M275.31,155.49h-2.54v-19.18h2.54v19.18Z"/>
    <path class="st2" d="M281.16,152.13c.1.04.2.07.3.08s.2.02.3.02c.25,0,.48-.05.71-.14.23-.09.44-.23.64-.4.2-.17.38-.39.54-.64s.29-.53.38-.84l1.85,2.58c-.23.46-.5.88-.81,1.24-.31.37-.63.68-.99.94-.35.26-.73.45-1.12.58-.39.13-.79.2-1.21.2-.7,0-1.35-.18-1.96-.54-.61-.36-1.15-.86-1.61-1.5-.46-.64-.82-1.4-1.09-2.29-.26-.88-.4-1.86-.4-2.92s.13-2.08.4-2.97.63-1.66,1.09-2.29c.46-.63.99-1.12,1.61-1.47.61-.35,1.27-.53,1.96-.53.41,0,.82.07,1.21.21.39.14.77.33,1.12.59.35.26.68.57.99.94.31.37.58.79.81,1.25l-4.73,7.91ZM282.46,144.92c-.12-.06-.23-.1-.35-.12-.11-.02-.23-.03-.36-.03-.35,0-.67.09-.97.26s-.57.42-.79.75c-.22.33-.4.72-.53,1.17-.13.46-.19.97-.19,1.54,0,.13,0,.27.01.44,0,.16.02.33.05.49.02.17.05.33.08.48.03.15.07.29.12.41l2.94-5.41Z"/>
    <path class="st2" d="M289.68,155.49h-2.52v-13.72h.61l.83,1.63c.41-.51.87-.91,1.39-1.19s1.05-.42,1.61-.42h2.23v3.49h-2.23c-.26,0-.51.07-.75.21-.23.14-.44.32-.61.56-.17.24-.31.52-.41.85-.1.33-.15.67-.15,1.04v7.56Z"/>
    <path class="st2" d="M297.97,138.03c0,.33-.04.63-.13.91-.09.28-.21.53-.36.74-.15.21-.33.38-.54.5-.21.12-.43.19-.66.19s-.45-.06-.66-.19c-.21-.12-.38-.29-.54-.5-.15-.21-.27-.46-.36-.74-.09-.28-.13-.58-.13-.91s.04-.62.13-.9c.09-.29.21-.53.36-.74.15-.21.33-.38.54-.5.21-.12.43-.19.66-.19s.45.06.66.19c.21.12.39.29.54.5.15.21.28.46.36.74.09.29.13.59.13.9ZM297.53,155.49h-2.54v-13.72h2.54v13.72Z"/>
  </g>
  <g>
    <path class="st4" d="M37.82,61.49c.71-1.29,1.29-2.68,1.75-4.09.46-1.41.82-2.85,1.04-4.31.45-2.91.31-5.91-.59-8.66-.45-1.37-1.06-2.69-1.86-3.89-.8-1.19-1.72-2.31-2.78-3.3-.25-.26-.54-.48-.81-.72-.28-.23-.54-.48-.84-.69-.59-.42-1.15-.88-1.78-1.25l-.92-.58c-.31-.19-.64-.35-.96-.53l-1.98-1.08c-1.32-.72-2.64-1.41-3.93-2.28l-1.95-1.25-1.85-1.36c-1.26-.87-2.4-1.91-3.58-2.88-.59-.49-1.12-1.05-1.69-1.57l-.84-.79c-.28-.26-.53-.56-.8-.83-.52-.56-1.06-1.12-1.57-1.69l-1.48-1.77c-.95-1.21-1.89-2.45-2.73-3.74-.86-1.28-1.64-2.63-2.38-4-.35-.7-.71-1.39-1.02-2.11-.16-.36-.32-.72-.46-1.09-.07-.19-.15-.37-.22-.56-.07-.2-.14-.37-.21-.61l3.09.02c-.39,1.43-.73,2.98-1.01,4.49-.29,1.52-.53,3.05-.74,4.59-.41,3.07-.61,6.17-.64,9.24,0,1.54.02,3.07.11,4.6.09,1.53.21,3.05.41,4.56.19,1.51.43,3.01.75,4.48.31,1.48.67,2.94,1.14,4.37.46,1.43.97,2.84,1.59,4.2.61,1.36,1.32,2.68,2.13,3.93.79,1.26,1.67,2.47,2.65,3.61.99,1.13,2.05,2.18,3.19,3.18,1.13,1,2.37,1.88,3.65,2.72,1.27.85,2.63,1.57,4.02,2.26,1.4.66,2.83,1.29,4.3,1.81,1.47.55,2.98,1,4.5,1.45l-.07.4c-.79-.09-1.59-.15-2.38-.26-.79-.13-1.59-.23-2.37-.4-.39-.08-.79-.16-1.18-.24l-1.17-.3c-.79-.18-1.55-.45-2.33-.68-1.53-.54-3.05-1.14-4.52-1.88-1.46-.75-2.89-1.58-4.24-2.56-1.35-.96-2.63-2.04-3.81-3.22-1.18-1.19-2.26-2.47-3.25-3.82-.98-1.36-1.85-2.8-2.61-4.29-.76-1.49-1.44-3.02-1.99-4.59-1.12-3.14-1.81-6.4-2.2-9.66-.18-1.63-.31-3.27-.34-4.91-.04-1.63-.02-3.27.07-4.89.17-3.25.57-6.47,1.1-9.66.27-1.59.59-3.18.95-4.75.37-1.59.76-3.12,1.25-4.73v-.03c.27-.85,1.17-1.32,2.01-1.06.54.17.93.6,1.08,1.11.03.12.09.3.14.45.05.16.11.33.17.49.12.33.24.66.38.99.26.66.57,1.31.87,1.97.64,1.29,1.33,2.57,2.1,3.81.75,1.24,1.59,2.44,2.46,3.61l1.35,1.73c.47.56.96,1.1,1.44,1.65.25.27.47.56.73.82l.77.78c.52.51,1.01,1.06,1.56,1.55,1.1.97,2.16,2,3.34,2.87l1.73,1.36,1.8,1.24c1.16.86,2.5,1.59,3.77,2.37l1.93,1.16c.33.2.67.39.99.6l.96.66c.65.42,1.24.94,1.85,1.41.31.24.58.52.87.78.28.27.58.52.84.81,1.09,1.11,2.04,2.37,2.85,3.7.81,1.34,1.41,2.8,1.83,4.29.84,3,.84,6.17.24,9.16-.3,1.5-.74,2.96-1.29,4.38-.55,1.42-1.2,2.79-2,4.08l-.35-.21Z"/>
    <path class="st1" d="M12.17,31.49s.21.89.75,2.41c.55,1.51,1.4,3.65,2.64,6.1,1.23,2.46,2.85,5.22,4.79,8.04.5.7.99,1.41,1.52,2.11.26.35.53.7.8,1.06.28.35.55.7.83,1.05,1.11,1.41,2.31,2.77,3.53,4.11.63.65,1.25,1.32,1.9,1.94.66.62,1.3,1.25,1.97,1.84,1.34,1.17,2.66,2.32,3.94,3.44.64.55,1.27,1.1,1.87,1.66.61.54,1.21,1.07,1.79,1.59.57.53,1.15,1.02,1.71,1.5.55.49,1.08.97,1.6,1.41,1.04.89,1.97,1.75,2.83,2.47.85.75,1.59,1.41,2.19,1.95.61.54,1.09.98,1.41,1.29.32.31.49.48.49.48l-.21.36s-.23-.07-.65-.21c-.42-.14-1.04-.36-1.81-.65-.78-.28-1.7-.7-2.74-1.19-1.05-.48-2.19-1.1-3.43-1.8-.63-.34-1.24-.75-1.89-1.15-.64-.42-1.32-.83-1.97-1.32-.66-.48-1.34-.96-2.02-1.49-.67-.54-1.33-1.1-2-1.69-.66-.6-1.3-1.24-1.95-1.89-.65-.65-1.25-1.36-1.88-2.05-.62-.7-1.22-1.43-1.83-2.14-.6-.73-1.19-1.47-1.79-2.2-.57-.75-1.17-1.49-1.72-2.25-.55-.77-1.11-1.52-1.62-2.29-.26-.39-.52-.77-.78-1.15-.24-.39-.49-.78-.73-1.17-.49-.77-.93-1.56-1.37-2.32-.86-1.55-1.66-3.05-2.33-4.53-.69-1.46-1.27-2.88-1.77-4.2-.51-1.31-.89-2.55-1.23-3.64-.33-1.1-.57-2.06-.75-2.86-.35-1.6-.46-2.54-.46-2.54l.4-.07Z"/>
  </g>
</svg>