<?xml version="1.0" encoding="UTF-8"?><svg id="Layer_1" xmlns="http://www.w3.org/2000/svg" viewBox="0 0 240.94 141.73"><defs><style>.cls-1{fill:#fff;}.cls-2{fill:#1d1d1a;}.cls-3{fill:#df2328;}</style></defs><polygon class="cls-3" points="60.28 40.48 52.8 61.03 52.63 61.03 45.28 40.48 30.48 40.48 45.19 76.96 45.19 103.37 59.87 103.37 59.87 76.96 74.91 40.48 60.28 40.48"/><rect class="cls-3" x="80.11" y="59.46" width="14.64" height="44.35"/><path class="cls-3" d="M141.66,103.81h-10l-.65-3.9h-.17c-1.52,1.87-3.2,3.16-5.04,3.88-1.84.72-4.39,1.08-7.64,1.08-5.8,0-9.98-1.26-12.54-3.77-2.56-2.51-3.84-5.97-3.84-10.38v-18.22c0-4.81,1.59-8.37,4.78-10.67,3.18-2.3,8.14-3.45,14.86-3.45,13.28,0,19.92,4.27,19.92,12.82v3.32h-14.68v-2.43c0-1.44-.12-2.54-.35-3.31-.23-.76-.69-1.36-1.36-1.79-.68-.43-1.62-.65-2.84-.65-2.17,0-3.66.38-4.47,1.13-.81.75-1.22,1.92-1.22,3.49v21.95c0,2.64,1.8,3.96,5.41,3.96,2.25,0,3.67-.48,4.27-1.44.27-.42.49-1.02.65-1.78.16-.76.24-1.57.24-2.44v-3.5h-5.25v-8h19.92v24.08Z"/><rect class="cls-3" x="149.6" y="59.46" width="14.63" height="44.35"/><path class="cls-3" d="M94.1,55.72c0,.93-.76,1.7-1.68,1.7h-11.57v-8.68c0-.93.76-1.7,1.68-1.7h11.57v8.68Z"/><path class="cls-3" d="M77.63,40.48l-4.84,12.57h6.67v-4.33c0-1.7,1.38-3.09,3.07-3.09h12.96v7.42h12.05c-1.2-1.53-1.81-3.4-1.81-5.59,0-.77.62-1.39,1.39-1.39h6.59c.69,0,1.27.51,1.37,1.2.31,2.15,4.8,2.47,7.45,2.47,2.18,0,3.86-.22,5-.65.93-.35,1.6-1.06,2.05-2.15.21-.52.72-.87,1.28-.87h6.38c.76,0,1.39.62,1.39,1.39,0,2.16-.74,4.03-2.19,5.59h12.47v-4.33c0-1.7,1.38-3.09,3.07-3.09h12.95v7.42h16.91v50.32h14.64v-50.32h11.83v-12.57H77.63Z"/><path class="cls-3" d="M163.54,55.72c0,.93-.76,1.7-1.68,1.7h-11.57v-8.68c0-.93.76-1.7,1.69-1.7h11.57v8.68Z"/><path class="cls-3" d="M107.11,47.46h6.59c.35,2.45,3.29,3.67,8.82,3.67,2.36,0,4.19-.24,5.49-.74,1.3-.49,2.25-1.47,2.84-2.93h6.38c0,1.95-.71,3.6-2.12,4.95-1.41,1.36-3.28,2.38-5.61,3.06-2.33.68-4.8,1.03-7.4,1.03-4.8,0-8.5-.76-11.1-2.28-2.6-1.52-3.9-3.77-3.9-6.76"/><path class="cls-2" d="M203.06,58.62v1.42h-.19s-.23-.03-.23-.03c-.24,0-.46-.02-.66-.06-.2-.04-.41-.1-.61-.18-.35-.13-.63-.35-.84-.65-.21-.3-.31-.7-.31-1.2,0-.56.08-1,.25-1.34.16-.33.4-.58.7-.74.3-.16.65-.27,1.05-.31.4-.05.88-.07,1.46-.07h1.07c.27,0,.52.01.76.03.24.02.46.05.67.07.35.05.68.16.97.32.28.16.51.4.67.72.16.33.24.76.24,1.31,0,.65-.16,1.15-.49,1.51-.33.36-.81.54-1.44.54-.1.01-.19.02-.28.03-.09,0-.19.01-.29.01v-1.39l.45-.04c.17-.02.33-.04.45-.08.13-.04.24-.1.34-.2.09-.1.14-.23.14-.38,0-.42-.15-.7-.46-.83-.3-.13-.69-.19-1.15-.19h-2.35c-.28,0-.54.02-.77.06-.23.04-.43.14-.6.28-.17.15-.25.37-.25.67,0,.18.06.32.18.42.12.09.27.16.46.21.1.02.2.04.29.05.09,0,.18.02.27.02l.52.02ZM198.66,56.67l.41.19c-.05.17-.09.33-.11.47-.03.14-.04.27-.04.39,0,.12.04.22.13.31.09.09.2.13.32.13.12-.03.2-.1.24-.2.03-.06.05-.14.05-.24,0-.12-.03-.26-.08-.41l.2-.21.9.59v.53l-.63-.42c.04.1.06.21.06.33,0,.29-.08.52-.24.68-.11.15-.28.22-.53.22-.14,0-.3-.04-.46-.13-.32-.25-.48-.63-.48-1.14,0-.16.01-.3.04-.44l.11-.35.1-.3Z"/><polygon class="cls-2" points="200.4 65.4 200.4 61.45 207.87 61.45 207.87 65.4 206.77 65.4 206.77 62.85 204.9 62.85 204.9 65.2 203.8 65.2 203.8 62.85 201.5 62.85 201.5 65.4 200.4 65.4"/><polygon class="cls-2" points="200.4 70.85 200.4 66.84 207.87 66.84 207.87 68.24 201.5 68.24 201.5 70.85 200.4 70.85"/><path class="cls-2" d="M208.67,73.54h1.15v-1.27h-1.15v1.27ZM200.4,73.6h7.47v-1.4h-7.47v1.4Z"/><path class="cls-2" d="M200.4,76.71v-1.4h7.47v1.4h-3.31v.02c.4.15,1,.45,1.79.89l1.52.82v1.59l-3.21-1.86-4.26,1.95v-1.59l2.95-1.32-.8-.5h-2.15Z"/><path class="cls-2" d="M200.4,85.47v-1.4h7.47v1.4h-3.31v.02c.4.15,1,.45,1.79.89l1.52.82v1.59l-3.21-1.86-4.26,1.95v-1.59l2.95-1.32-.8-.49h-2.15Z"/><path class="cls-2" d="M205.51,91.9l-2.12-.42v1.2l2.12-.38c.08-.02.21-.03.37-.06.17-.02.39-.05.66-.08.08,0,.15,0,.22-.01.12-.02.21-.03.28-.04v-.02l-.5-.05c-.25-.03-.46-.06-.65-.08-.19-.03-.31-.05-.39-.06M200.4,90.89v-1.5l7.47,1.79v1.89l-7.47,1.71v-1.51l1.89-.37v-1.65l-1.89-.37Z"/><path class="cls-2" d="M206.77,97.29h-2.14v.75c0,.33.08.59.26.76.17.18.47.26.9.26.28,0,.49-.04.63-.11.14-.07.24-.19.28-.35.05-.16.07-.38.07-.67v-.64ZM200.4,97.29v-1.4h7.47v2.87c0,.43-.1.77-.3,1.03-.2.26-.46.45-.78.56-.32.11-.67.17-1.04.17-.81,0-1.4-.24-1.77-.71-.3-.38-.45-.9-.45-1.57v-.94h-3.13Z"/><rect class="cls-2" x="200.4" y="101.81" width="7.47" height="1.4"/><path class="cls-1" d="M207.47,47.02c0,2.25-1.77,4.02-4.06,4.02s-4.09-1.77-4.09-4.02,1.81-3.97,4.09-3.97,4.06,1.77,4.06,3.97ZM200.33,47.02c0,1.77,1.31,3.17,3.1,3.17s3.02-1.4,3.02-3.15-1.28-3.19-3.05-3.19-3.07,1.43-3.07,3.17ZM202.77,49.1h-.92v-3.97c.36-.07.87-.12,1.52-.12.75,0,1.09.12,1.38.29.22.17.39.48.39.87,0,.44-.34.77-.82.92v.05c.39.15.6.44.73.97.12.6.19.85.29.99h-.99c-.12-.15-.19-.51-.31-.97-.07-.44-.31-.63-.82-.63h-.44v1.6ZM202.8,46.85h.44c.51,0,.92-.17.92-.58,0-.36-.27-.6-.85-.6-.24,0-.41.02-.51.05v1.14Z"/></svg>